<?xml version="1.0" encoding="utf-8"?>
<!-- Generator: Adobe Illustrator 19.0.0, SVG Export Plug-In . SVG Version: 6.00 Build 0)  -->
<svg version="1.1" id="Layer_1" xmlns="http://www.w3.org/2000/svg" xmlns:xlink="http://www.w3.org/1999/xlink" x="0px" y="0px"
	 viewBox="0 0 231.6 235" style="enable-background:new 0 0 231.6 235;" xml:space="preserve">
<style type="text/css">
	.st0{fill-rule:evenodd;clip-rule:evenodd;fill:#FFFFFF;stroke:#ffffff;stroke-miterlimit:10;}
	.st1{fill-rule:evenodd;clip-rule:evenodd;fill:none;stroke:#ffffff;stroke-miterlimit:10;}
	.st2{fill:#FFFFFF;stroke:#ffffff;stroke-miterlimit:10;}
</style>
<g id="XMLID_2_">
	<g id="XMLID_3_">
		<g id="XMLID_553_">
			<g id="XMLID_101_">
				<g id="XMLID_102_">
					<path id="XMLID_103_" class="st0" d="M140.2,123.3c-0.2-0.5-0.5-1-0.7-1.5c-0.1-0.3-0.3-0.3-0.5-0.1c-0.1,0.1-0.1,0.1-0.2,0.2
						c-1,1-1.9,2-2.6,3.2c-0.7,1.2-1.2,2.5-1.6,3.9c-0.1,0.3,0,0.5,0.4,0.4c0.6-0.1,1.1-0.2,1.7-0.4c0.1,0,0.1,0,0.3-0.1
						c0,0.1,0,0.2,0,0.3c-0.2,0.5-0.3,1.1-0.6,1.6c-0.9,1.7-2.3,3-4.1,3.7c-1.8,0.7-3.7,1-5.6,0.7c-1.8-0.3-3.3-1.3-4.3-2.7
						c-1-1.4-1.6-3-2.1-4.7c-0.6-2.4-0.9-4.9-1.1-7.3c-0.1-1.9-0.2-3.9-0.2-5.8c0-2.7-0.1-5.5-0.1-8.2c0-0.4,0.1-0.5,0.5-0.5
						c2.1,0,4.3,0,6.4,0c0.4,0,0.7,0.1,0.9,0.4c0.6,0.8,1.5,1.2,2.5,1.1c1-0.1,1.7-0.6,2.2-1.5c0.7-1.2,0.3-2.9-0.9-3.7
						c-1.4-0.8-2.8-0.5-3.8,0.7c-0.2,0.2-0.3,0.3-0.6,0.3c-2.3,0-4.5,0-6.8,0c-0.3,0-0.4-0.1-0.4-0.4c0-1.5,0-3-0.1-4.5
						c0-0.3,0.1-0.4,0.3-0.6c1.6-0.7,2.7-1.9,3.3-3.6c0.9-2.5,0.1-5.1-1.7-6.7c-1.3-1.1-2.8-1.6-4.5-1.5c-2.9,0.1-5.4,2.4-5.8,5.4
						c-0.3,2.6,1.1,5.2,3.5,6.4c0.3,0.2,0.4,0.4,0.4,0.7c0,1.5-0.1,2.9-0.1,4.4c0,0.4-0.1,0.5-0.5,0.5c-2.2,0-4.5,0-6.7,0
						c-0.3,0-0.5-0.1-0.7-0.3c-0.2-0.2-0.3-0.4-0.5-0.6c-1.2-0.9-2.7-0.8-3.8,0.2c-1.2,1.2-0.9,3.4,0.6,4.3c1.4,0.8,2.8,0.5,3.8-0.8
						c0.2-0.2,0.4-0.3,0.7-0.3c2.2,0,4.5,0,6.7,0c0.3,0,0.5,0.1,0.4,0.4c0,0.5,0,1.1,0,1.6c-0.1,4.4,0,8.9-0.3,13.3
						c-0.2,2.2-0.5,4.4-1,6.5c-0.5,1.9-1.2,3.6-2.5,5.1c-0.8,0.9-1.8,1.6-2.9,2c-2.4,0.7-4.7,0.4-7-0.6c-2.1-0.9-3.5-2.6-4.2-4.8
						c-0.1-0.2-0.1-0.4-0.1-0.6c0.7,0.1,1.2,0.3,1.8,0.4c0.5,0.1,0.6-0.1,0.5-0.5c-0.7-2.8-2.2-5.1-4.2-7.1
						c-0.4-0.3-0.5-0.3-0.8,0.1c-0.8,1.5-1.3,3.1-1.6,4.8c-0.2,1.1-0.2,2.3-0.1,3.4c0,0.3,0.2,0.4,0.4,0.3c0.4-0.2,0.7-0.3,1-0.5
						c0.2-0.1,0.4-0.3,0.6-0.4c0,0.1,0.1,0.2,0.1,0.3c0.2,1.2,0.5,2.4,1,3.6c0.7,1.8,1.8,3.4,3.1,4.8c1.2,1.2,2.5,2.2,4,2.9
						c1,0.4,2,0.7,3.1,1.1c1.3,0.4,2.7,0.6,4,1.1c2.5,0.9,4.7,2.3,6.6,4.2c0.6,0.6,0.6,0.6,1.3,0c1.2-1.2,2.6-2.2,4.1-3
						c2-1.1,4.2-1.8,6.4-2.3c1-0.2,2.1-0.6,3.1-1c1.1-0.4,2-1.1,3-1.8c1.5-1.2,2.7-2.7,3.7-4.4c0.9-1.6,1.4-3.3,1.7-5.1
						c0-0.1,0.1-0.2,0.1-0.3c0.6,0.3,1.1,0.6,1.7,0.9c0.3,0.1,0.4,0,0.4-0.3c0-0.2,0-0.4,0-0.6C141.4,127.4,141,125.3,140.2,123.3z
						 M116.5,96.7c-0.7-0.9-3.1-4-3.5-5.5c-0.3-1.1,0.4-2.1,1.4-2.1c1.2,0,1.9,1,2.1,1.9c0.2-0.9,0.9-2,2.1-1.9c1.1,0,1.7,1,1.4,2.1
						C119.7,92.7,117.2,95.7,116.5,96.7z"/>
				</g>
			</g>
		</g>
		<g id="XMLID_249_">
			<g id="XMLID_411_">
				<g id="XMLID_899_">
					<path id="XMLID_900_" class="st0" d="M126.6,11.9c2.4,1,4.8,1.3,7.4,1.5c4.3,0.3,8.7,1.5,12.8,3c2.1,0.8,4.1,1.8,6.3,2.1
						c0.2,0,0.6,0,0.7,0.1c3.7,3.3,8.9,3.6,12.9,6.7c3,2.3,6.6,4,9.8,6.3c2.2,1.6,4.9,2.4,6.3,5.1c0.3,0.6,0.9,0.9,1.5,1.1
						c2.4,1,4.4,2.5,5.5,5c0.1,0.1,0.1,0.4,0.2,0.4c3.8,2,5.7,5.7,8.5,8.7c1.6,1.7,3.6,3.1,4.1,5.6c0,0.2,0.1,0.4,0.2,0.5
						c3.6,2.7,4.7,7.2,7.2,10.7c0.2,0.3,0.7,0.6,0.8,0.9c1.4,4.9,4.7,9,6,14.1c1,3.8,2.3,7.6,3.4,11.4c0.8,3,2.4,5.6,1.5,8.9
						c-0.3,1,0.2,1.7,0.6,2.6c1.1,2.5,1.5,5,0.4,7.6c-0.5,1.1-0.4,2.2,0,3.3c0.9,2.7,1,5.3-0.5,7.8c-0.4,0.7-0.5,1.4-0.3,2.1
						c0.2,0.7,0.4,1.5,0.3,2.2c-1.4,5.1-1.2,10.6-3.6,15.5c-0.1,0.3-0.6,0.6-0.5,0.8c0.5,4.7-3.3,7.9-4.2,12.2c-0.4,2-1.2,3.7-2.8,5
						c-0.8,0.7-1.2,1.4-1.4,2.5c-0.4,2.5-1.5,4.6-3.7,6.1c-0.1,0.1-0.3,0.2-0.4,0.3c-1.2,4.3-4.9,6.8-7.1,10.4
						c-1.2,1.9-2.3,3.8-4.4,4.7c-1.1,0.4-1.6,1.3-2.1,2.3c-1.1,2.2-2.6,4-5,4.7c-0.1,0-0.2,0-0.2,0.1c-2.4,3.6-6.3,5.3-9.4,8
						c-1.8,1.5-3.3,3.4-5.8,3.7c-1.1,0.1-1.8,1-2.6,1.8c-1.6,1.8-3.5,2.9-5.9,3.1c-0.1,0-0.2,0-0.2,0c-3.3,2.7-7.4,3.5-11.2,5.1
						c-2.2,0.9-4.1,2.3-6.6,2.1c-1.1-0.1-2.1,0.3-3,0.8c-2.2,1.3-4.4,2.1-7,1.4c-0.1,0-0.2-0.1-0.2,0c-3.9,2-8.2,1.2-12.2,1.7
						c-1.4,0.2-2.8,0.9-4.1,0.5c-3-0.9-6.2,0.1-8.8-0.6c-4.6-1.3-9.8-0.1-14.1-3c-0.7-0.5-1.6-0.3-2.4-0.3c-2.4-0.1-4.7-0.5-6.5-2.2
						c-0.7-0.7-1.5-0.9-2.4-0.9c-0.6,0-1.2,0.1-1.7-0.2c-4.4-2.6-9.7-3.5-13.5-7.1c-0.1-0.1-0.2-0.3-0.3-0.4
						c-4.3-0.9-7-4.4-10.5-6.5c-2-1.2-4-2.2-5.1-4.3c-0.5-1.1-1.4-1.5-2.4-1.9c-2.2-0.9-3.9-2.4-4.8-4.6c-0.1-0.2-0.2-0.6-0.3-0.6
						c-3.9-2-5.6-6.1-8.5-9c-1.6-1.6-3.2-3-3.7-5.3c0-0.2-0.1-0.4-0.2-0.5c-3.3-2.8-4.5-6.9-6.7-10.3c-1.2-1.9-2.9-3.6-2.8-6
						c0-0.1,0-0.2,0-0.2c-2.9-3.6-3.3-8.3-5.2-12.3c-0.5-1.2-1.5-2.3-1.4-3.6c0.3-2.9-1.3-5.3-1.7-7.9c-0.6-3.8-1.2-7.6-1.4-11.4
						c-0.1-2.8-0.5-5.8-0.2-8.6c0.4-3.8,0.4-7.7,1.2-11.4c0.5-2.6,1-5.3,1.6-7.9c0.9-3.8,2-7.6,3.4-11.2c1-2.6,1.8-5.3,3.1-7.7
						c1.9-3.4,3.2-7.1,5.4-10.2c1.6-2.2,2.7-4.6,4.2-6.6c2.3-3.1,4.5-6.2,7-9.1c1.8-2.1,3.6-4.3,5.6-6.1c2.9-2.6,5.5-5.5,8.5-7.7
						c2.2-1.6,4.1-3.6,6.4-4.9c3.3-2,6.4-4.4,9.8-6.1c2.4-1.2,4.8-2.6,7.2-3.7c3.6-1.6,7.2-3.2,10.9-4.4c2.5-0.8,5-1.7,7.5-2.2
						c3.9-0.7,7.7-1.6,11.5-2.3c2.2-0.4,4.6,1.1,6.8-0.6C118.1,11.9,122.4,11.9,126.6,11.9z M205,91.5c0.4-1.2-0.2-2.1-0.9-3.1
						c-2.3-3.8-3.2-8.4-5.8-12c-0.1-0.1-0.1-0.3-0.1-0.5c-0.1-1.3-0.9-2.1-1.7-3.1c-2.7-3.2-4.2-7.4-7.5-10.2
						c-0.2-0.1-0.2-0.4-0.3-0.7c-1.9-3.5-5.6-5.5-7.6-9c0-0.1-0.1-0.1-0.2-0.1c-3.9-2.1-5.9-6.5-10.3-8.1c-0.4-0.2-0.5-1.1-1-1.4
						c-3-2-5.9-4.5-9.2-5.8c-4.1-1.5-7.4-4.9-12-5.3c-0.2,0-0.4-0.3-0.6-0.4c-3.2-2.1-7.4-1.6-10.6-3.7c-0.2-0.1-0.5,0.1-0.7,0
						c-4.3-0.4-8.5-2-12.9-1.6c-0.3,0-0.6-0.2-0.9-0.4c-0.8-0.4-1.7-0.4-2.6-0.2c-4.4,1-8.9-0.2-13.3,1.2c-0.3,0.1-0.7,0-1-0.1
						c-0.9-0.3-1.7-0.1-2.5,0.4c-1.9,1.1-3.8,1.8-6.1,1.3c-0.9-0.2-1.5,0.4-2.2,0.8c-4,2.1-8.7,2.6-12.4,5.2c-0.2,0.2-0.7,0-1,0.2
						c-3.2,1.5-6.6,3.2-9.2,5.2c-3.5,2.7-7.6,4.6-10.7,8.1c-1.3,1.4-3.4,2.4-4.5,4.3c-0.6,1-1.6,1.6-2.5,2.2
						c-3.2,2.3-4.6,6.2-7.8,8.5c-0.1,0.1-0.1,0.3-0.2,0.4c-2,4-5.6,7-7,11.3c0,0.1-0.2,0.2-0.3,0.3c-2.3,3.2-3.9,6.9-5.2,10.5
						c-1.4,3.9-3.7,7.7-3.6,12.1c0,0.2-0.2,0.4-0.3,0.6c-1.9,3.6-0.6,7.9-2.2,11.6c-0.1,0.1,0.1,0.3,0.1,0.5
						c0.2,4.4-0.5,8.8,0.2,13.1c0,0.2-0.2,0.5-0.1,0.7c0.6,3.7,0.7,7.6,1.9,11.2c1.4,4.2,1.9,8.7,4.3,12.6c0.2,0.3,0.1,0.8,0.1,1.2
						c-0.1,0.7,0.2,1.3,0.7,1.7c1.7,1.7,2.1,4.2,3.2,6.1c1.8,3,3.4,6.4,5.7,9c2.9,3.4,4.8,7.6,8.6,10.2c0.3,0.2,0.4,0.9,0.6,1.3
						c0.2,0.6,0.4,1.1,1,1.3c2.4,1.1,4.5,2.6,5.5,5.3c0.2,0.4,0.7,0.7,1.1,0.8c2.2,0.9,4.2,2.1,5.4,4.3c0.2,0.4,0.8,0.9,1.3,1
						c4.3,1.1,6.9,5.1,11.2,6.5c2.1,0.7,4.1,2.6,6.6,3c0.8,0.1,1.7,0.7,2.3,1.3c0.9,0.9,2,1.1,3.2,1.4c4.2,0.9,8.2,2.5,12.4,3.3
						c1.6,0.3,3.1,0.6,4.8,0.7c3.9,0.3,7.7,0.8,11.6,0.7c1.8-0.1,3.5,0,5.4-0.2c3.7-0.5,7.5-0.9,11.2-1.8c1.9-0.5,3.7-0.8,5.6-1.5
						c3.4-1.2,6.8-2.3,10.2-3.8c2-0.9,3.8-1.9,5.6-2.8c3.3-1.6,6-4.2,9.1-5.4c3.9-1.6,5.4-6.2,9.8-6.7c1.3-2.7,3.9-4.2,6-6.1
						c2.1-1.8,2.9-5,5.9-6.2c0.3-0.1,0.4-0.9,0.6-1.3c2-4,5.7-6.9,7.2-11.3c0.1-0.4,0.7-0.7,1.1-0.9c0.7-0.4,1.1-0.9,1.1-1.7
						c0.2-2.4,1.6-4.1,2.7-6.1c1.7-2.8,1.7-6.5,3.9-9.2c-0.6-4.8,3.4-8.8,2.3-13.7c-0.2-0.7,0.6-1.7,1.1-2.4
						c0.6-0.9,0.7-1.7,0.4-2.7c-0.8-2.3-0.8-4.6,0.4-6.9c0.4-0.7,0.3-1.4,0-2.1c-0.9-2.2-1.4-4.5-0.5-6.9c0.4-0.9-0.3-1.5-0.6-2.3
						c-1.9-4.2-1.3-9-3.6-13C204.9,92.1,205,91.8,205,91.5z M210.4,120.2c0,2.8,0.7,3.8,2.1,2.9c4-2.5,7.4-5.6,9-10.2
						c0.7-1.8,0.5-3.5-0.2-5.2c-0.4-1-0.9-1.2-1.5-0.2c-2.1,3.1-5.1,5.5-7.5,8.3C211.1,117.1,210.2,118.5,210.4,120.2z M221,117.3
						c-2.8,3.3-6.2,5.5-9.3,8.1c-2,1.7-3.1,3.8-2.7,6.4c0.1,0.9,0.5,1.7,1.6,1.1c3.9-2.4,8.2-4.4,10.4-8.9
						C222.1,121.9,222.3,119.8,221,117.3z M215.8,86.2c-1.6,4.3-4.3,7.7-6.2,11.5c-1,2-1,3.8-0.1,5.8c0.7,1.5,1.3,1.7,2.4,0.5
						c2.6-2.8,4.8-6,5.8-9.7C218.5,91.4,218.3,88.7,215.8,86.2z M218.7,96.1c-1.9,4.1-4.8,7.3-7.3,10.8c-1.4,2.1-1.4,4.3-0.5,6.5
						c0.4,0.9,0.9,1.1,1.6,0.4c2.7-2.7,5.6-5.3,7.2-8.8C221.1,101.9,221.3,99,218.7,96.1z M207,140.1c0.4,0.5-0.7,2.6,1.3,1.8
						c3.8-1.6,7.7-3.3,10.5-6.5c1.6-1.8,2.4-3.9,2-6.3c-0.1-0.9-0.5-1.5-1.4-0.7c-3.1,2.7-6.8,4.5-10.1,6.9
						C207.8,136.4,207,138,207,140.1z M203.2,172.4c-4.3,1.1-8.5,1.2-12.7,1.8c-2.5,0.3-4.3,1.7-5.3,4.1c-0.3,0.7-0.4,1.3,0.6,1.3
						c4.3,0,8.6,0.5,12.8-1.1C201.2,177.5,202.8,175.5,203.2,172.4z M175.8,33.2c1.1,4.8,1,9.3,1.8,13.7c0.4,2.1,1.7,3.3,3.3,4.3
						c1.1,0.6,1.9,0.7,1.8-0.9c-0.1-3.6,0.3-7.2-0.5-10.7C181.5,36.2,179.5,34.1,175.8,33.2z M52.1,186C52.1,186,52.1,186,52.1,186
						c-0.1-2-0.1-3.9-0.1-5.9c0-2.2-1.1-3.9-2.8-5.1c-1-0.7-1.7-1-1.9,0.7c-0.4,3.6-1.1,7.1-0.7,10.7c0.3,2.6,1.4,4.8,3.8,6.2
						c1.1,0.6,1.9,1,1.8-1C52,189.8,52.1,187.9,52.1,186z M64.8,42.2c2,0.3,4.1-0.4,5.6-2.4c0.6-0.7,0.7-1.4-0.3-1.6
						c-3.8-0.8-7.5-2.2-11.5-2.1c-2.7,0.1-4.8,1.2-6.3,3.5c-0.6,1-0.6,1.5,0.7,1.5C56.9,40.9,60.6,42.1,64.8,42.2z M38.4,54.9
						c2.1-0.2,3.9-0.5,5.8-0.6c1.9-0.1,3.9,0,5.9-0.1c2.7-0.2,5.1-0.8,6.6-3.4c0.6-1.1,0.6-1.6-0.8-1.8c-3.2-0.4-6.3-0.3-9.5-0.3
						C42.3,48.8,39.9,50.7,38.4,54.9z M212.6,157.2c-0.1-0.5,0.4-1.7-1-1.1c-3.8,1.6-8,2.3-11.8,3.8c-2,0.8-3.2,2.4-3.8,4.5
						c-0.2,0.9-0.1,1.5,1,1.3c3.8-0.8,7.7-1.1,11.3-2.8C210.7,161.8,212.2,160,212.6,157.2z M45.2,63.1c0.2-1.1-0.4-1.1-1.1-1
						c-3.2,0.5-6.5,0.8-9.6,1.5c-3.1,0.7-5.5,2.4-6.4,5.7c-0.2,0.9-0.3,1.7,1.1,1.3c3.9-0.9,7.8-1.8,11.6-2.8
						C43.3,67.2,44.6,65.4,45.2,63.1z M117.5,25c0.2,0,1-0.2,1.9-0.4c0.9-0.2,1-0.7,0.4-1.4c-2.7-2.7-5.1-5.9-8.5-8
						c-2.3-1.4-4.7-1.6-7.2-0.5c-0.9,0.4-1.5,0.9-0.3,1.6c3.2,2,5.8,4.7,8.7,7C113.8,24.3,115.1,25.1,117.5,25z M119.8,220.3
						c0.2,0,1.1-0.1,1.9-0.4c0.7-0.2,1.3-0.6,0.4-1.3c-3.2-2.5-5.5-5.7-8.3-8.6c-1.7-1.7-3.8-2.1-6.1-1.8c-1.2,0.2-1.4,0.7-0.7,1.6
						c2.1,2.7,3.8,5.7,6.3,8C115.1,219.4,116.9,220.4,119.8,220.3z M175.9,43.1c-0.1-3-0.4-6-1.1-8.9c-0.7-2.8-2.2-5.1-5.2-5.9
						c-0.9-0.2-1.7-0.3-1.4,1.1c0.8,4,1.7,8.1,2.5,12.1c0.5,2.2,2.2,3.3,4.1,4.1c0.9,0.4,1.2,0.1,1.1-0.8
						C175.9,44.3,175.9,43.7,175.9,43.1z M181.8,192.8c4-0.1,7-0.8,8.7-3.9c0.6-1.1,0.5-1.6-0.9-1.6c-3.5,0.1-7-0.1-10.5-0.4
						c-2.6-0.2-4.8,0.4-6.4,2.7c-0.6,0.9-0.9,1.6,0.6,1.8C176.3,191.9,179.4,192.4,181.8,192.8z M112.3,14.5c1.9,1.2,3.2,2.6,4.6,4
						c1.8,1.8,3.5,3.7,5.3,5.4c1.6,1.6,3.6,1.8,5.7,1.3c1-0.2,1.2-0.6,0.5-1.5c-2.3-2.8-4.2-6-7.1-8.4C118.6,13,116,12.6,112.3,14.5
						z M44.7,47.7c4.6-0.7,8.7,0.2,12.8,0.2c2.6,0,4.5-1.1,6-3.2c0.5-0.7,0.7-1.3-0.5-1.5c-4-0.7-8-1.4-12.1-1
						C47.8,42.7,45.9,44.6,44.7,47.7z M195.6,53.9c0.4-2.8-0.6-5.6-3.6-7.4c-0.9-0.6-1.5-0.6-1.6,0.7c-0.2,4.2-0.4,8.5-0.5,12.7
						c-0.1,1.9,1,3.2,2.4,4.3c1.2,1,1.9,0.6,2.1-0.9C194.8,60.4,195.6,57.4,195.6,53.9z M201.4,60.5c0.1-3.4-0.9-5.5-3.2-6.9
						c-0.6-0.4-1.5-1.1-1.5,0.4c0,4.2-1.4,8.2-1.6,12.3c-0.1,2.1,0.7,3.8,2.2,5.2c1,0.9,1.6,0.7,1.9-0.5
						C200.1,67.6,201.4,64.2,201.4,60.5z M202.7,60.6c-0.5,4.5-2,8.5-2.9,12.6c-0.5,2.4,0.2,4.3,1.8,6c0.8,0.8,1.3,0.8,1.7-0.3
						c1.1-3.2,2.5-6.2,3.2-9.5C207.3,65.5,206.3,62.9,202.7,60.6z M67.9,204.8c-1.6-4.4-1.7-8.7-2.6-12.9c-0.5-2.3-1.8-3.7-3.9-4.7
						c-1.3-0.6-1.8-0.2-1.7,1.2c0.2,2.3,0.3,4.7,0.5,7C61,201.4,62.8,203.7,67.9,204.8z M39,179.4c0.2-4.6,1.5-9,2-13.5
						c0.2-2.1-0.7-3.8-2.2-5.2c-0.9-0.8-1.4-0.9-1.8,0.5c-0.7,2.6-1.6,5.1-2.2,7.7C33.8,174.3,35,177.3,39,179.4z M145.4,204.4
						c-1.4-0.1-2.6,0.6-3.7,1.4c-0.9,0.5-0.9,1.1,0.1,1.6c3.4,1.7,6.5,4,10.2,5.2c2.7,0.8,4.9,0.1,7-1.5c1-0.8,1.2-1.3-0.3-1.7
						c-3.1-0.9-6-2.4-9-3.7C148.3,205,147,204.3,145.4,204.4z M45.7,55.5c-2.3,0-4.6,0-6.8,0.6c-2.8,0.7-4.8,2.3-5.7,5.1
						c-0.3,1-0.1,1.5,1,1.2c3.9-1,7.9-1,11.8-1.8c2.2-0.5,3.6-1.7,4.6-3.7c0.7-1.4,0.4-1.9-1.2-1.7C48.1,55.5,46.9,55.5,45.7,55.5z
						 M128.2,219.8c1.1,0,2.1-0.1,3.1-0.6c0.9-0.5,1-1,0.1-1.6c-3.3-2.1-5.8-4.9-8.8-7.3c-1.9-1.5-3.9-1.9-6.2-1.3
						c-1,0.3-1.5,0.7-0.5,1.7c2.4,2.5,4.5,5.4,7.4,7.5C124.7,219.2,126.3,219.9,128.2,219.8z M67.7,192.3c-0.8,0-1,0.4-0.9,1.1
						c0.8,3.6,0.9,7.3,2.1,10.7c1,2.8,3,4.6,5.9,5.2c0.7,0.1,1.6,0.2,1.1-0.9c-1.8-4.1-2-8.7-3.8-12.8
						C71.3,193.6,69.4,192.9,67.7,192.3z M188.8,186.4c2.7-0.2,6.3-0.6,8.1-4.5c0.5-1,0.7-1.6-0.9-1.5c-3.9,0.3-7.8,0.4-11.7,0.5
						c-2.3,0.1-3.9,1.4-5.2,3.2c-0.7,1.1-0.6,1.8,0.9,1.8C182.7,186,185.3,186.2,188.8,186.4z M45.3,186.6c-0.3-4.7,0.9-9,0.9-13.4
						c0-2.1-0.8-3.6-2.3-4.9c-1.2-1.1-1.9-1-2.2,0.7c-0.5,2.9-1.1,5.8-1.5,8.7C39.7,181.8,41.5,184.9,45.3,186.6z M98.2,15.6
						c-1.3,0.2-2.5,0.6-3.7,1.2c-0.9,0.4-1.2,1-0.1,1.5c3.8,1.8,7,4.7,10.7,6.7c1.8,1,3.4,0.8,5.1,0.2c1.3-0.5,1.5-1.1,0.4-2
						c-2.5-2.2-5-4.4-7.8-6.2C101.4,16.2,99.9,15.8,98.2,15.6z M33,149c0.1-1.7-0.8-3-1.6-4.2c-0.6-0.9-1.1-0.8-1.6,0.2
						c-1.6,3.5-3.8,6.8-4.6,10.7c-0.6,2.6,0.2,4.8,1.9,6.7c0.9,1,1.3,0.8,1.7-0.5c0.7-2.3,1.5-4.4,2.3-6.7
						C31.8,153.2,32.7,151.2,33,149z M15.9,117.4c3-3.6,6.5-5.9,9.7-8.7c1.8-1.6,2.4-3.6,2.1-5.9c-0.1-1-0.3-1.7-1.4-0.9
						c-2.9,2-6.1,3.8-8.6,6.3C15.1,110.7,14.5,113.6,15.9,117.4z M159.2,23.5c1.9,4.1,2.5,8.3,3.8,12.2c0.7,2.2,2,3.9,4.4,4.5
						c1.2,0.3,1.8,0.2,1.5-1.2c-0.7-3.3-1-6.8-2.1-10C165.6,25.5,163.2,23.8,159.2,23.5z M72.9,37.4c2,0.1,3.5-0.8,4.8-2
						c0.8-0.8,1.2-1.4-0.3-1.8c-3.1-1-6.1-2.2-9.3-2.7c-3-0.5-5.8-0.1-8,2.4c-0.6,0.7-1,1.5,0.4,1.7C64.7,35.8,68.8,36.6,72.9,37.4z
						 M113.2,219.4c-3.3-3.3-5.5-7.1-8.3-10.5c-1.4-1.7-3.3-2.3-5.4-2.1c-1.1,0.1-1.6,0.4-0.9,1.5c1.7,2.8,3.1,5.9,5.3,8.4
						C106.2,219.4,109,220.8,113.2,219.4z M176.5,200.1c-4.4-1-8.5-1.9-12.7-2.8c-3-0.6-4.9,0.3-6.8,3.1c3.6,1.3,7.1,2.8,10.9,3.5
						C171.5,204.6,174.2,203.2,176.5,200.1z M171.1,192.5c-2.2-0.2-4,0.5-5.5,2c-1,1-1.2,1.7,0.5,2.1c2.9,0.7,5.7,1.5,8.6,1.9
						c3.3,0.5,6.4,0.1,8.5-2.9c0.6-0.9,1-1.5-0.6-1.7C178.7,193.5,174.9,193,171.1,192.5z M60,199.3c-1.3-4.4-0.9-8.7-1.5-12.8
						c-0.4-2.4-1.5-4-3.6-5.2c-1.2-0.7-1.6-0.4-1.6,0.9c0,3.3-0.1,6.5,0.1,9.8C53.6,196,55.6,198.2,60,199.3z M29.4,164.7
						c0,2.7,1,4.6,2.8,6.2c0.6,0.5,1.1,0.7,1.3-0.4c0.9-3.8,2-7.5,2.9-11.3c0.6-2.4,0.1-4.5-1.7-6.3c-0.5-0.5-1.1-1-1.5,0
						C31.7,156.9,29.8,160.6,29.4,164.7z M190.6,172.9c3.9-0.3,7.4-0.5,10.9-1.3c3-0.7,5.4-2.2,6.5-5.3c0.3-1,0.5-2-1.2-1.6
						c-3.5,0.8-7,1.6-10.5,2.3C193.1,167.6,191.4,169.6,190.6,172.9z M154.1,201.3c-1.5-0.2-2.9,0.5-4.2,1.6c-0.7,0.6-1,1.2,0.1,1.6
						c3.5,1.5,6.8,3.4,10.6,4.2c2.3,0.5,4.3-0.1,6.1-1.5c0.6-0.4,1.4-0.9,1.3-1.6c-0.1-1-1.2-0.6-1.8-0.8c-2.1-0.7-4.2-1.3-6.3-2
						C158.2,202.1,156.4,201.4,154.1,201.3z M18.2,136.6c1.9-4,4.8-7,7.3-10.3c1.5-2.1,1.9-4.2,1-6.6c-0.3-0.9-0.7-1.3-1.5-0.4
						c-2.4,2.5-5.1,4.8-7,7.7C16.1,130.1,15.7,133.2,18.2,136.6z M85.1,213.2c-2.3-4.1-3.2-8.5-5-12.6c-0.9-2-2.4-3-4.4-3.5
						c-0.9-0.2-1.7-0.2-1.4,1.2c0.9,3.7,1.5,7.5,3.3,10.9C79.1,212,81.5,213.4,85.1,213.2z M216.1,148.8c-0.2-0.6,0.4-2.2-0.9-1.5
						c-4,2.2-8.6,3-12.5,5.6c-1.6,1-2,2.7-2.4,4.4c-0.2,1,0.3,1.1,1.1,0.9c3.6-1.1,7.5-1.8,10.8-3.7
						C214.4,153.2,215.9,151.4,216.1,148.8z M17.6,96c0.5,0.2-0.7,2.4,1.4,1.3c3.5-1.9,7-3.9,10.4-5.9c2-1.2,2.8-3.1,3.1-5.3
						c0.1-0.9-0.2-1.4-1.2-1c-3.5,1.4-7.1,2.5-10.2,4.7C19,91.2,17.9,93.2,17.6,96z M152.5,19.9c-1.3,0-2.2,0-1.6,1.1
						c2,3.7,3,7.9,4.8,11.7c1,2.1,2.9,2.7,4.9,3.2c0.8,0.2,1.1-0.2,0.9-0.9c-1.2-4-1.7-8.3-4.1-11.9C156.2,21.1,154.3,20,152.5,19.9
						z M218.9,139.3c-0.4-0.3,0.5-2.3-1.2-1.2c-3.4,2.2-7.1,3.7-10.5,5.7c-2,1.2-3,2.9-3.2,5.2c-0.1,1.1,0.3,1.5,1.4,1.1
						c3.2-1.2,6.5-2.3,9.4-4.1C217.3,144.5,219,142.5,218.9,139.3z M24.1,154.8c1.4-4.6,4.1-8.4,5.7-12.8c0.7-2,0.1-3.8-1-5.5
						c-0.5-0.8-0.9-0.8-1.4,0c-1.9,3.2-4.3,6.1-5.5,9.7C20.9,149.3,21.3,152.2,24.1,154.8z M142,216.4c-4.2-2.1-7.3-4.9-10.9-7.1
						c-2-1.2-4-1.4-6.1-0.5c-0.8,0.3-1.3,0.8-0.4,1.6c2.8,2.5,5.4,5.4,8.9,7.1C136.4,218.9,139.2,218.6,142,216.4z M74.6,25.8
						c-3.4-0.1-5.2,0.9-6.7,2.5c-0.6,0.7-0.5,1.2,0.4,1.4c4.1,0.7,7.9,2.5,11.9,3.5c2.2,0.5,4-0.4,5.6-1.8c0.4-0.4,0.9-0.9,0-1.3
						C81.8,28.4,78,26,74.6,25.8z M101.5,218.7c0.5-0.4,2.4,0.1,1.4-1.3c-2.5-3.3-4.2-7.1-6.6-10.5c-1.3-1.8-3-2.6-5.2-2.6
						c-1,0-1.3,0.4-0.9,1.4c1.5,3.5,2.9,7.1,5.3,10.1C97,217.7,99,218.6,101.5,218.7z M23.8,79.7c4-1.8,8-2.8,12-4.2
						c2.3-0.8,3.7-2.3,4.4-4.6c0.3-1.2,0.1-1.8-1.3-1.5c-3,0.7-6.1,1.3-9,2.1C26.1,72.7,23.8,75.2,23.8,79.7z M89.5,18.4
						c-1.6-0.1-3.1,0.6-4.4,1.6c-0.6,0.4-0.8,1,0.1,1.3c4.2,1.5,7.8,4.4,12,5.9c1.7,0.6,3.2,0.1,4.7-0.6c1.1-0.6,1.6-1.1,0.2-1.9
						c-2.5-1.5-4.9-3.2-7.4-4.8C93.2,18.8,91.5,18.2,89.5,18.4z M184,48c0,1.6,0,3.2,0,4.9c0.1,2,1.2,3.5,2.9,4.6
						c1.1,0.8,1.7,0.6,1.8-0.9c0.2-2.8,0.8-5.7,0.7-8.5c0-3.3-0.8-6.5-4.2-8.2c-1.4-0.8-2-0.4-1.7,1.1C183.9,43.3,184,45.7,184,48z
						 M92.1,216.3c0.4-0.4,2.4,0.5,1.4-1.1c-2.2-3.7-3.5-7.9-5.7-11.5c-1-1.7-2.7-2.3-4.5-2.6c-1-0.2-1.6,0.1-1.2,1.3
						c1.1,3.4,2,6.9,3.9,9.9C87.3,214.6,89.2,216.1,92.1,216.3z M211.2,75.1c0.1-2.2-0.6-4-2.2-5.5c-0.5-0.5-1.2-0.8-1.4,0.2
						c-0.8,4.1-2.9,7.8-3.9,11.8c-0.5,2,0,3.9,1.4,5.5c0.4,0.5,1.1,1.1,1.5,0.2C208.5,83.4,210.9,79.7,211.2,75.1z M75.5,24.7
						c4.3,1.2,8,3.2,11.9,4.7c2.2,0.9,4.3,0.7,6.2-0.7c0.8-0.6,1.2-1.2,0.1-1.8c-3.1-1.7-6.1-3.8-9.6-4.8
						C80.9,21.2,77.9,21.7,75.5,24.7z M16.5,107.5c3.4-3,7.1-5.1,10.5-7.6c1.9-1.4,2.8-3.3,2.6-5.7c-0.1-1-0.4-1.4-1.4-0.8
						c-3,1.7-6.1,3-8.9,5.1C16.5,100.8,15.4,103.6,16.5,107.5z M18.6,140.5c-0.1,1.4,0.3,2.9,1.2,4.2c0.4,0.6,1,1.1,1.4,0.1
						c1.7-3.8,4.4-7,6.3-10.7c0.9-1.7,0.8-3.5,0.1-5.2c-0.5-1.4-1.1-2-2.3-0.4c-1.3,1.9-2.8,3.6-4.1,5.4
						C19.8,135.9,18.5,137.9,18.6,140.5z M212.2,77.3c-1.2,4.1-3.2,7.6-4.8,11.2c-1,2.3-1.2,4.5,0.3,6.7c0.5,0.8,1.1,1.4,1.8,0.2
						c1.9-3.3,4.3-6.4,5.3-10.1C215.6,82.4,215,79.7,212.2,77.3z M15.2,123.1c0.2,0.6,0.3,1.6,0.6,2.5c0.3,0.8,0.8,1.3,1.5,0.3
						c2.3-3.4,5.6-5.9,8.2-9c1.4-1.7,1.7-3.4,1.2-5.5c-0.3-1-0.6-1.5-1.6-0.7c-3,2.4-6.1,4.6-8.4,7.8
						C15.8,119.7,15.3,121.1,15.2,123.1z M20.4,86.9c-0.1,1.1,0.1,1.6,1.2,1.1c3.8-1.8,7.7-3.5,11.5-5.3c1.7-0.8,2.5-2.5,2.8-4.3
						c0.1-0.9,0-1.7-1.2-1.3c-3.6,1.1-7.3,1.9-10.5,3.8C21.8,82.3,20.5,84.3,20.4,86.9z M133.8,14.9c0,0-0.8,0-1.4,0.3
						c-0.4,0.2-0.1,0.7,0.2,1c2.5,3.1,4.2,6.7,6.5,10c1.3,1.8,3,2.6,5.2,2.7c1.2,0,1.7-0.3,1.1-1.5c-1.4-2.7-2.5-5.5-4.1-8
						C139.7,16.9,137.8,14.8,133.8,14.9z M122.2,14.4c3.1,2.8,5.3,6.4,7.9,9.6c1.6,1.9,3.5,2.8,6,2.5c0.9-0.1,1.5-0.3,0.9-1.3
						c-2.1-3.4-3.8-7-6.8-9.7C127.9,13.3,125.3,13,122.2,14.4z M145.6,215.8c1.6,0.2,3-0.3,4.4-1.3c0.9-0.6,0.8-1.1-0.2-1.5
						c-3.5-1.5-6.7-3.7-10.1-5.4c-2-1-4-1-6.1,0c-1.4,0.7-1.2,1.2-0.1,2c2.1,1.4,4.1,3,6.2,4.3C141.5,214.9,143.3,216,145.6,215.8z
						 M141.2,17.2c2.6,3.6,4,7.7,6,11.3c1.1,2,2.8,3.3,5.3,3.4c0.9,0,1.5-0.1,1.1-1.2c-1.4-3.6-2.3-7.3-4.5-10.5
						C147.2,17.6,144.8,16.4,141.2,17.2z"/>
				</g>
			</g>
			<g id="XMLID_409_">
				<path id="XMLID_410_" class="st1" d="M210.4,120.2c-0.1-1.7,0.8-3.1,1.9-4.5c2.5-2.8,5.4-5.2,7.5-8.3c0.6-0.9,1.2-0.7,1.5,0.2
					c0.6,1.7,0.8,3.5,0.2,5.2c-1.7,4.6-5.1,7.7-9,10.2C211.1,124,210.4,123,210.4,120.2z"/>
			</g>
			<g id="XMLID_407_">
				<path id="XMLID_408_" class="st1" d="M221,117.3c1.3,2.5,1.1,4.6,0,6.7c-2.2,4.4-6.5,6.4-10.4,8.9c-1.1,0.7-1.4-0.2-1.6-1.1
					c-0.4-2.7,0.6-4.8,2.7-6.4C214.8,122.8,218.2,120.6,221,117.3z"/>
			</g>
			<g id="XMLID_405_">
				<path id="XMLID_406_" class="st1" d="M215.8,86.2c2.5,2.5,2.7,5.2,2,8c-1,3.8-3.2,6.9-5.8,9.7c-1.1,1.2-1.8,1-2.4-0.5
					c-0.9-2-0.9-3.9,0.1-5.8C211.5,93.9,214.1,90.5,215.8,86.2z"/>
			</g>
			<g id="XMLID_403_">
				<path id="XMLID_404_" class="st1" d="M218.7,96.1c2.5,2.9,2.4,5.9,1.1,8.9c-1.6,3.6-4.5,6.1-7.2,8.8c-0.7,0.7-1.3,0.5-1.6-0.4
					c-0.9-2.2-0.9-4.4,0.5-6.5C213.9,103.3,216.8,100.2,218.7,96.1z"/>
			</g>
			<g id="XMLID_401_">
				<path id="XMLID_402_" class="st1" d="M207,140.1c0-2.1,0.8-3.6,2.4-4.8c3.3-2.4,7-4.2,10.1-6.9c0.9-0.8,1.3-0.2,1.4,0.7
					c0.3,2.4-0.4,4.5-2,6.3c-2.8,3.2-6.7,4.9-10.5,6.5C206.4,142.7,207.4,140.6,207,140.1z"/>
			</g>
			<g id="XMLID_399_">
				<path id="XMLID_400_" class="st1" d="M203.2,172.4c-0.5,3.1-2,5.1-4.6,6.1c-4.1,1.6-8.5,1.1-12.8,1.1c-1,0-0.9-0.6-0.6-1.3
					c1-2.4,2.8-3.7,5.3-4.1C194.7,173.6,198.9,173.5,203.2,172.4z"/>
			</g>
			<g id="XMLID_397_">
				<path id="XMLID_398_" class="st1" d="M175.8,33.2c3.8,0.8,5.7,2.9,6.4,6.3c0.8,3.5,0.4,7.1,0.5,10.7c0,1.6-0.8,1.5-1.8,0.9
					c-1.7-1-3-2.2-3.3-4.3C176.8,42.5,176.9,38,175.8,33.2z"/>
			</g>
			<g id="XMLID_395_">
				<path id="XMLID_396_" class="st1" d="M52.1,186c0,1.9-0.1,3.8,0,5.6c0.2,2-0.6,1.6-1.8,1c-2.4-1.4-3.6-3.6-3.8-6.2
					c-0.4-3.6,0.3-7.1,0.7-10.7c0.2-1.6,0.9-1.4,1.9-0.7c1.8,1.2,2.8,2.9,2.8,5.1C52.1,182.1,52.1,184.1,52.1,186
					C52.1,186,52.1,186,52.1,186z"/>
			</g>
			<g id="XMLID_393_">
				<path id="XMLID_394_" class="st1" d="M64.8,42.2c-4.2-0.1-7.9-1.3-11.8-1.1c-1.3,0.1-1.3-0.5-0.7-1.5c1.5-2.3,3.6-3.5,6.3-3.5
					c4-0.1,7.7,1.3,11.5,2.1c1,0.2,0.9,0.9,0.3,1.6C68.9,41.7,66.9,42.5,64.8,42.2z"/>
			</g>
			<g id="XMLID_391_">
				<path id="XMLID_392_" class="st1" d="M38.4,54.9c1.5-4.2,3.9-6.1,7.9-6.1c3.2-0.1,6.3-0.2,9.5,0.3c1.4,0.2,1.4,0.7,0.8,1.8
					c-1.4,2.7-3.9,3.3-6.6,3.4c-1.9,0.1-3.9,0-5.9,0.1C42.3,54.4,40.5,54.7,38.4,54.9z"/>
			</g>
			<g id="XMLID_389_">
				<path id="XMLID_390_" class="st1" d="M212.6,157.2c-0.4,2.7-1.9,4.5-4.2,5.6c-3.6,1.7-7.5,2-11.3,2.8c-1.1,0.2-1.2-0.4-1-1.3
					c0.6-2.1,1.7-3.7,3.8-4.5c3.8-1.5,8-2.2,11.8-3.8C213,155.5,212.5,156.7,212.6,157.2z"/>
			</g>
			<g id="XMLID_387_">
				<path id="XMLID_388_" class="st1" d="M45.2,63.1c-0.6,2.3-2,4.1-4.4,4.7c-3.9,1-7.7,1.9-11.6,2.8c-1.4,0.3-1.3-0.4-1.1-1.3
					c0.8-3.3,3.2-5,6.4-5.7c3.2-0.7,6.4-1,9.6-1.5C44.8,62,45.5,62,45.2,63.1z"/>
			</g>
			<g id="XMLID_385_">
				<path id="XMLID_386_" class="st1" d="M117.5,25c-2.4,0.1-3.7-0.7-4.9-1.7c-3-2.2-5.6-5-8.7-7c-1.2-0.8-0.6-1.2,0.3-1.6
					c2.5-1.1,4.9-0.9,7.2,0.5c3.3,2.1,5.7,5.3,8.5,8c0.7,0.7,0.5,1.1-0.4,1.4C118.5,24.8,117.7,25,117.5,25z"/>
			</g>
			<g id="XMLID_383_">
				<path id="XMLID_384_" class="st1" d="M119.8,220.3c-3,0.1-4.8-0.9-6.4-2.4c-2.5-2.3-4.2-5.3-6.3-8c-0.7-0.9-0.5-1.4,0.7-1.6
					c2.3-0.3,4.4,0.1,6.1,1.8c2.8,2.9,5.1,6.1,8.3,8.6c0.9,0.7,0.3,1.1-0.4,1.3C120.9,220.2,120,220.3,119.8,220.3z"/>
			</g>
			<g id="XMLID_381_">
				<path id="XMLID_382_" class="st1" d="M175.9,43.1c0,0.6,0.1,1.1,0.1,1.7c0.1,0.9-0.3,1.2-1.1,0.8c-1.9-0.8-3.7-1.9-4.1-4.1
					c-0.9-4-1.7-8.1-2.5-12.1c-0.3-1.4,0.5-1.3,1.4-1.1c3.1,0.8,4.5,3,5.2,5.9C175.5,37.1,175.8,40.1,175.9,43.1z"/>
			</g>
			<g id="XMLID_379_">
				<path id="XMLID_380_" class="st1" d="M181.8,192.8c-2.3-0.4-5.5-0.9-8.6-1.4c-1.5-0.2-1.2-1-0.6-1.8c1.6-2.2,3.9-2.9,6.4-2.7
					c3.5,0.3,7,0.5,10.5,0.4c1.4,0,1.5,0.5,0.9,1.6C188.7,192,185.8,192.7,181.8,192.8z"/>
			</g>
			<g id="XMLID_377_">
				<path id="XMLID_378_" class="st1" d="M112.3,14.5c3.7-1.9,6.3-1.6,9,0.8c2.8,2.4,4.8,5.5,7.1,8.4c0.7,0.9,0.4,1.3-0.5,1.5
					c-2.1,0.5-4.1,0.3-5.7-1.3c-1.8-1.8-3.5-3.6-5.3-5.4C115.6,17.1,114.2,15.7,112.3,14.5z"/>
			</g>
			<g id="XMLID_375_">
				<path id="XMLID_376_" class="st1" d="M44.7,47.7c1.3-3.2,3.1-5,6.2-5.4c4.1-0.5,8.1,0.3,12.1,1c1.2,0.2,1,0.7,0.5,1.5
					c-1.5,2.1-3.4,3.2-6,3.2C53.3,47.9,49.2,47,44.7,47.7z"/>
			</g>
			<g id="XMLID_373_">
				<path id="XMLID_374_" class="st1" d="M195.6,53.9c0,3.6-0.8,6.5-1.2,9.5c-0.2,1.4-0.9,1.9-2.1,0.9c-1.4-1.1-2.5-2.5-2.4-4.3
					c0.1-4.2,0.3-8.5,0.5-12.7c0.1-1.3,0.7-1.3,1.6-0.7C195,48.3,196,51,195.6,53.9z"/>
			</g>
			<g id="XMLID_371_">
				<path id="XMLID_372_" class="st1" d="M201.4,60.5c0,3.6-1.4,7-2.2,10.5c-0.3,1.2-0.9,1.4-1.9,0.5c-1.5-1.4-2.3-3.1-2.2-5.2
					c0.2-4.2,1.6-8.1,1.6-12.3c0-1.4,0.8-0.8,1.5-0.4C200.6,55,201.5,57.1,201.4,60.5z"/>
			</g>
			<g id="XMLID_369_">
				<path id="XMLID_370_" class="st1" d="M202.7,60.6c3.5,2.3,4.6,4.9,3.8,8.8c-0.7,3.3-2.1,6.3-3.2,9.5c-0.4,1.2-0.9,1.2-1.7,0.3
					c-1.6-1.7-2.3-3.6-1.8-6C200.7,69.1,202.3,65.2,202.7,60.6z"/>
			</g>
			<g id="XMLID_367_">
				<path id="XMLID_368_" class="st1" d="M67.9,204.8c-5.1-1.1-7-3.4-7.6-9.3c-0.3-2.3-0.3-4.7-0.5-7c-0.1-1.4,0.4-1.8,1.7-1.2
					c2.1,0.9,3.3,2.4,3.9,4.7C66.3,196.1,66.4,200.4,67.9,204.8z"/>
			</g>
			<g id="XMLID_365_">
				<path id="XMLID_366_" class="st1" d="M39,179.4c-4.1-2.1-5.3-5.1-4.1-10.4c0.6-2.6,1.5-5.1,2.2-7.7c0.4-1.4,0.9-1.3,1.8-0.5
					c1.5,1.4,2.5,3.1,2.2,5.2C40.6,170.4,39.3,174.7,39,179.4z"/>
			</g>
			<g id="XMLID_363_">
				<path id="XMLID_364_" class="st1" d="M145.4,204.4c1.6-0.1,2.9,0.6,4.3,1.2c3,1.3,5.8,2.9,9,3.7c1.5,0.4,1.3,0.9,0.3,1.7
					c-2.1,1.6-4.3,2.3-7,1.5c-3.7-1.1-6.8-3.4-10.2-5.2c-1-0.5-0.9-1-0.1-1.6C142.8,205,144,204.3,145.4,204.4z"/>
			</g>
			<g id="XMLID_361_">
				<path id="XMLID_362_" class="st1" d="M45.7,55.5c1.2-0.1,2.5,0,3.7-0.2c1.6-0.2,2,0.3,1.2,1.7c-1,1.9-2.4,3.2-4.6,3.7
					c-3.9,0.8-7.9,0.8-11.8,1.8c-1.1,0.3-1.3-0.2-1-1.2c0.9-2.9,2.9-4.4,5.7-5.1C41.1,55.5,43.4,55.6,45.7,55.5z"/>
			</g>
			<g id="XMLID_359_">
				<path id="XMLID_360_" class="st1" d="M128.2,219.8c-1.9,0.1-3.5-0.6-5-1.7c-2.9-2.1-4.9-5-7.4-7.5c-0.9-1-0.4-1.4,0.5-1.7
					c2.3-0.6,4.3-0.2,6.2,1.3c3,2.4,5.6,5.3,8.8,7.3c0.9,0.6,0.8,1.1-0.1,1.6C130.3,219.6,129.3,219.8,128.2,219.8z"/>
			</g>
			<g id="XMLID_357_">
				<path id="XMLID_358_" class="st1" d="M67.7,192.3c1.8,0.7,3.6,1.4,4.5,3.4c1.7,4.1,2,8.7,3.8,12.8c0.5,1.1-0.4,1-1.1,0.9
					c-3-0.6-4.9-2.4-5.9-5.2c-1.3-3.5-1.4-7.2-2.1-10.7C66.6,192.7,66.8,192.2,67.7,192.3z"/>
			</g>
			<g id="XMLID_355_">
				<path id="XMLID_356_" class="st1" d="M188.8,186.4c-3.5-0.2-6.1-0.3-8.7-0.4c-1.5-0.1-1.7-0.7-0.9-1.8c1.2-1.8,2.8-3.1,5.2-3.2
					c3.9-0.2,7.8-0.3,11.7-0.5c1.6-0.1,1.4,0.6,0.9,1.5C195.1,185.8,191.5,186.1,188.8,186.4z"/>
			</g>
			<g id="XMLID_353_">
				<path id="XMLID_354_" class="st1" d="M45.3,186.6c-3.9-1.7-5.6-4.8-5.1-8.9c0.4-2.9,1-5.8,1.5-8.7c0.3-1.7,1-1.8,2.2-0.7
					c1.4,1.3,2.3,2.8,2.3,4.9C46.2,177.6,45,181.9,45.3,186.6z"/>
			</g>
			<g id="XMLID_351_">
				<path id="XMLID_352_" class="st1" d="M98.2,15.6c1.6,0.2,3.2,0.5,4.6,1.4c2.8,1.8,5.3,4,7.8,6.2c1.1,1,0.9,1.6-0.4,2
					c-1.7,0.6-3.4,0.8-5.1-0.2c-3.7-2-6.9-4.9-10.7-6.7c-1-0.5-0.8-1.1,0.1-1.5C95.7,16.2,96.9,15.8,98.2,15.6z"/>
			</g>
			<g id="XMLID_349_">
				<path id="XMLID_350_" class="st1" d="M33,149c-0.2,2.2-1.2,4.2-1.9,6.2c-0.8,2.2-1.7,4.4-2.3,6.7c-0.4,1.3-0.8,1.5-1.7,0.5
					c-1.7-2-2.5-4.2-1.9-6.7c0.8-3.9,3-7.2,4.6-10.7c0.4-1,1-1.1,1.6-0.2C32.2,146.1,33.1,147.4,33,149z"/>
			</g>
			<g id="XMLID_347_">
				<path id="XMLID_348_" class="st1" d="M15.9,117.4c-1.4-3.8-0.8-6.7,1.7-9.2c2.6-2.5,5.7-4.3,8.6-6.3c1.2-0.8,1.3-0.1,1.4,0.9
					c0.3,2.3-0.3,4.3-2.1,5.9C22.4,111.5,18.9,113.8,15.9,117.4z"/>
			</g>
			<g id="XMLID_345_">
				<path id="XMLID_346_" class="st1" d="M159.2,23.5c4,0.3,6.4,2,7.6,5.5c1.1,3.3,1.4,6.7,2.1,10c0.3,1.4-0.4,1.5-1.5,1.2
					c-2.4-0.6-3.7-2.3-4.4-4.5C161.7,31.8,161.1,27.7,159.2,23.5z"/>
			</g>
			<g id="XMLID_343_">
				<path id="XMLID_344_" class="st1" d="M72.9,37.4c-4.1-0.8-8.3-1.6-12.4-2.4c-1.4-0.3-0.9-1-0.4-1.7c2.1-2.6,4.9-3,8-2.4
					c3.2,0.6,6.2,1.8,9.3,2.7c1.5,0.5,1.1,1.1,0.3,1.8C76.4,36.7,74.9,37.5,72.9,37.4z"/>
			</g>
			<g id="XMLID_341_">
				<path id="XMLID_342_" class="st1" d="M113.2,219.4c-4.1,1.5-7,0.1-9.3-2.7c-2.2-2.5-3.6-5.6-5.3-8.4c-0.7-1.1-0.2-1.4,0.9-1.5
					c2.2-0.2,4,0.4,5.4,2.1C107.7,212.2,109.9,216.1,113.2,219.4z"/>
			</g>
			<g id="XMLID_339_">
				<path id="XMLID_340_" class="st1" d="M176.5,200.1c-2.3,3.1-5,4.5-8.6,3.8c-3.8-0.7-7.3-2.2-10.9-3.5c1.9-2.9,3.8-3.8,6.8-3.1
					C168,198.2,172.1,199.1,176.5,200.1z"/>
			</g>
			<g id="XMLID_337_">
				<path id="XMLID_338_" class="st1" d="M171.1,192.5c3.8,0.5,7.6,1,11.4,1.4c1.6,0.2,1.3,0.8,0.6,1.7c-2.1,3-5.2,3.5-8.5,2.9
					c-2.9-0.5-5.7-1.3-8.6-1.9c-1.7-0.4-1.4-1.1-0.5-2.1C167.1,192.9,169,192.3,171.1,192.5z"/>
			</g>
			<g id="XMLID_335_">
				<path id="XMLID_336_" class="st1" d="M60,199.3c-4.4-1.2-6.3-3.3-6.6-7.4c-0.2-3.3,0-6.5-0.1-9.8c0-1.3,0.4-1.6,1.6-0.9
					c2,1.2,3.2,2.8,3.6,5.2C59.1,190.7,58.6,194.9,60,199.3z"/>
			</g>
			<g id="XMLID_333_">
				<path id="XMLID_334_" class="st1" d="M29.4,164.7c0.4-4.1,2.4-7.9,3.8-11.8c0.4-1,1-0.6,1.5,0c1.8,1.8,2.2,3.9,1.7,6.3
					c-0.9,3.8-1.9,7.6-2.9,11.3c-0.3,1.1-0.7,0.9-1.3,0.4C30.4,169.4,29.4,167.4,29.4,164.7z"/>
			</g>
			<g id="XMLID_331_">
				<path id="XMLID_332_" class="st1" d="M190.6,172.9c0.8-3.3,2.5-5.3,5.7-5.9c3.5-0.7,7-1.5,10.5-2.3c1.8-0.4,1.6,0.6,1.2,1.6
					c-1,3.1-3.4,4.6-6.5,5.3C198,172.4,194.5,172.6,190.6,172.9z"/>
			</g>
			<g id="XMLID_329_">
				<path id="XMLID_330_" class="st1" d="M154.1,201.3c2.3,0.1,4.1,0.8,5.9,1.4c2.1,0.7,4.2,1.3,6.3,2c0.6,0.2,1.7-0.2,1.8,0.8
					c0.1,0.8-0.8,1.2-1.3,1.6c-1.8,1.4-3.8,2-6.1,1.5c-3.8-0.8-7.1-2.8-10.6-4.2c-1.1-0.4-0.8-1-0.1-1.6
					C151.2,201.8,152.6,201.1,154.1,201.3z"/>
			</g>
			<g id="XMLID_327_">
				<path id="XMLID_328_" class="st1" d="M18.2,136.6c-2.5-3.5-2.2-6.5-0.2-9.6c1.9-3,4.6-5.2,7-7.7c0.8-0.8,1.2-0.5,1.5,0.4
					c0.9,2.4,0.5,4.6-1,6.6C23.1,129.6,20.2,132.7,18.2,136.6z"/>
			</g>
			<g id="XMLID_325_">
				<path id="XMLID_326_" class="st1" d="M85.1,213.2c-3.6,0.2-6-1.2-7.5-4c-1.9-3.4-2.4-7.2-3.3-10.9c-0.3-1.4,0.5-1.4,1.4-1.2
					c2,0.5,3.5,1.5,4.4,3.5C81.9,204.7,82.8,209.1,85.1,213.2z"/>
			</g>
			<g id="XMLID_323_">
				<path id="XMLID_324_" class="st1" d="M216.1,148.8c-0.2,2.6-1.6,4.4-3.8,5.6c-3.4,1.9-7.2,2.6-10.8,3.7
					c-0.8,0.3-1.3,0.1-1.1-0.9c0.4-1.7,0.8-3.4,2.4-4.4c3.8-2.5,8.4-3.4,12.5-5.6C216.5,146.6,215.9,148.2,216.1,148.8z"/>
			</g>
			<g id="XMLID_321_">
				<path id="XMLID_322_" class="st1" d="M17.6,96c0.3-2.7,1.4-4.8,3.4-6.2c3.1-2.2,6.7-3.3,10.2-4.7c1.1-0.4,1.3,0.1,1.2,1
					c-0.2,2.2-1,4.1-3.1,5.3c-3.5,2-6.9,4-10.4,5.9C16.9,98.3,18.1,96.2,17.6,96z"/>
			</g>
			<g id="XMLID_319_">
				<path id="XMLID_320_" class="st1" d="M152.5,19.9c1.8,0.2,3.7,1.3,4.9,3.2c2.4,3.6,2.8,7.9,4.1,11.9c0.2,0.7-0.1,1.1-0.9,0.9
					c-2-0.5-3.9-1.1-4.9-3.2c-1.8-3.8-2.8-8-4.8-11.7C150.3,19.9,151.2,19.8,152.5,19.9z"/>
			</g>
			<g id="XMLID_317_">
				<path id="XMLID_318_" class="st1" d="M218.9,139.3c0,3.2-1.6,5.3-4,6.7c-2.9,1.8-6.2,2.8-9.4,4.1c-1.1,0.4-1.5,0.1-1.4-1.1
					c0.2-2.3,1.2-4,3.2-5.2c3.4-2.1,7.2-3.5,10.5-5.7C219.5,137,218.5,139,218.9,139.3z"/>
			</g>
			<g id="XMLID_315_">
				<path id="XMLID_316_" class="st1" d="M24.1,154.8c-2.8-2.6-3.2-5.5-2.2-8.6c1.2-3.6,3.6-6.5,5.5-9.7c0.5-0.8,0.9-0.8,1.4,0
					c1,1.7,1.7,3.5,1,5.5C28.2,146.4,25.5,150.2,24.1,154.8z"/>
			</g>
			<g id="XMLID_313_">
				<path id="XMLID_314_" class="st1" d="M142,216.4c-2.9,2.2-5.6,2.5-8.5,1.1c-3.5-1.7-6.1-4.6-8.9-7.1c-0.9-0.8-0.4-1.2,0.4-1.6
					c2.1-0.9,4.1-0.7,6.1,0.5C134.7,211.5,137.9,214.3,142,216.4z"/>
			</g>
			<g id="XMLID_311_">
				<path id="XMLID_312_" class="st1" d="M74.6,25.8C78,26,81.8,28.4,85.9,30c0.9,0.4,0.4,0.9,0,1.3c-1.6,1.4-3.4,2.3-5.6,1.8
					c-4.1-0.9-7.8-2.7-11.9-3.5c-0.9-0.2-1-0.6-0.4-1.4C69.4,26.6,71.2,25.7,74.6,25.8z"/>
			</g>
			<g id="XMLID_309_">
				<path id="XMLID_310_" class="st1" d="M101.5,218.7c-2.5-0.2-4.6-1.1-6.1-2.9c-2.4-3-3.7-6.6-5.3-10.1c-0.4-0.9-0.1-1.3,0.9-1.4
					c2.2,0,3.9,0.7,5.2,2.6c2.4,3.4,4.1,7.2,6.6,10.5C104,218.9,102,218.3,101.5,218.7z"/>
			</g>
			<g id="XMLID_307_">
				<path id="XMLID_308_" class="st1" d="M23.8,79.7c0.1-4.5,2.3-7,6-8.1c3-0.9,6-1.4,9-2.1c1.4-0.3,1.6,0.3,1.3,1.5
					c-0.6,2.3-2.1,3.8-4.4,4.6C31.8,76.9,27.8,77.8,23.8,79.7z"/>
			</g>
			<g id="XMLID_305_">
				<path id="XMLID_306_" class="st1" d="M89.5,18.4c1.9-0.1,3.6,0.5,5.2,1.4c2.5,1.5,4.9,3.2,7.4,4.8c1.4,0.9,1,1.4-0.2,1.9
					c-1.5,0.7-3,1.2-4.7,0.6c-4.2-1.5-7.8-4.4-12-5.9c-0.8-0.3-0.6-0.8-0.1-1.3C86.4,18.9,87.9,18.2,89.5,18.4z"/>
			</g>
			<g id="XMLID_274_">
				<path id="XMLID_304_" class="st1" d="M184,48c0-2.4-0.1-4.7-0.4-7c-0.2-1.6,0.3-1.9,1.7-1.1c3.4,1.8,4.1,4.9,4.2,8.2
					c0,2.8-0.5,5.6-0.7,8.5c-0.1,1.5-0.7,1.6-1.8,0.9c-1.6-1.1-2.8-2.5-2.9-4.6C184,51.3,184,49.6,184,48z"/>
			</g>
			<g id="XMLID_272_">
				<path id="XMLID_273_" class="st1" d="M92.1,216.3c-2.9-0.2-4.8-1.8-6.1-4c-1.8-3.1-2.8-6.6-3.9-9.9c-0.4-1.2,0.2-1.5,1.2-1.3
					c1.8,0.3,3.4,1,4.5,2.6c2.2,3.7,3.6,7.8,5.7,11.5C94.5,216.8,92.6,215.9,92.1,216.3z"/>
			</g>
			<g id="XMLID_270_">
				<path id="XMLID_271_" class="st1" d="M211.2,75.1c-0.3,4.5-2.7,8.3-4.6,12.2c-0.4,0.9-1.1,0.3-1.5-0.2c-1.4-1.6-1.9-3.5-1.4-5.5
					c1-4,3-7.7,3.9-11.8c0.2-1.1,0.9-0.7,1.4-0.2C210.6,71.1,211.3,72.9,211.2,75.1z"/>
			</g>
			<g id="XMLID_268_">
				<path id="XMLID_269_" class="st1" d="M75.5,24.7c2.5-2.9,5.4-3.5,8.7-2.6c3.5,1,6.4,3.1,9.6,4.8c1.1,0.6,0.7,1.3-0.1,1.8
					c-2,1.4-4,1.5-6.2,0.7C83.5,27.8,79.7,25.9,75.5,24.7z"/>
			</g>
			<g id="XMLID_266_">
				<path id="XMLID_267_" class="st1" d="M16.5,107.5c-1.1-4,0-6.8,2.9-9c2.7-2.1,5.9-3.5,8.9-5.1c1-0.5,1.3-0.2,1.4,0.8
					c0.2,2.4-0.7,4.3-2.6,5.7C23.6,102.4,19.9,104.5,16.5,107.5z"/>
			</g>
			<g id="XMLID_264_">
				<path id="XMLID_265_" class="st1" d="M18.6,140.5c0-2.7,1.2-4.7,2.6-6.6c1.3-1.9,2.8-3.6,4.1-5.4c1.1-1.6,1.7-1,2.3,0.4
					c0.7,1.7,0.8,3.5-0.1,5.2c-1.9,3.7-4.6,6.9-6.3,10.7c-0.4,1-1,0.6-1.4-0.1C18.8,143.4,18.4,142,18.6,140.5z"/>
			</g>
			<g id="XMLID_262_">
				<path id="XMLID_263_" class="st1" d="M212.2,77.3c2.8,2.4,3.4,5.1,2.6,8c-1,3.7-3.4,6.8-5.3,10.1c-0.7,1.1-1.3,0.6-1.8-0.2
					c-1.5-2.2-1.3-4.4-0.3-6.7C209,84.9,211,81.4,212.2,77.3z"/>
			</g>
			<g id="XMLID_260_">
				<path id="XMLID_261_" class="st1" d="M15.2,123.1c0.1-1.9,0.6-3.4,1.5-4.7c2.2-3.2,5.4-5.4,8.4-7.8c1-0.8,1.4-0.3,1.6,0.7
					c0.5,2,0.2,3.8-1.2,5.5c-2.6,3.1-5.8,5.7-8.2,9c-0.7,1-1.2,0.5-1.5-0.3C15.5,124.7,15.3,123.7,15.2,123.1z"/>
			</g>
			<g id="XMLID_258_">
				<path id="XMLID_259_" class="st1" d="M20.4,86.9c0.1-2.6,1.4-4.7,3.7-6c3.3-1.9,7-2.7,10.5-3.8c1.3-0.4,1.4,0.4,1.2,1.3
					c-0.3,1.9-1.1,3.5-2.8,4.3c-3.8,1.8-7.7,3.5-11.5,5.3C20.4,88.6,20.2,88,20.4,86.9z"/>
			</g>
			<g id="XMLID_256_">
				<path id="XMLID_257_" class="st1" d="M133.8,14.9c4-0.1,6,2,7.5,4.4c1.5,2.6,2.7,5.3,4.1,8c0.6,1.3,0.1,1.6-1.1,1.5
					c-2.2-0.1-3.9-0.9-5.2-2.7c-2.3-3.2-4-6.9-6.5-10c-0.3-0.3-0.6-0.8-0.2-1C133,14.9,133.8,14.9,133.8,14.9z"/>
			</g>
			<g id="XMLID_254_">
				<path id="XMLID_255_" class="st1" d="M122.2,14.4c3.1-1.5,5.7-1.1,8,1c3,2.8,4.7,6.3,6.8,9.7c0.6,1,0,1.2-0.9,1.3
					c-2.5,0.3-4.4-0.7-6-2.5C127.5,20.8,125.4,17.3,122.2,14.4z"/>
			</g>
			<g id="XMLID_252_">
				<path id="XMLID_253_" class="st1" d="M145.6,215.8c-2.3,0.1-4.1-0.9-5.8-2c-2.1-1.3-4.1-2.9-6.2-4.3c-1.1-0.8-1.3-1.3,0.1-2
					c2.1-1,4.1-1,6.1,0c3.4,1.7,6.5,4,10.1,5.4c1,0.4,1,0.9,0.2,1.5C148.6,215.5,147.2,216.1,145.6,215.8z"/>
			</g>
			<g id="XMLID_250_">
				<path id="XMLID_251_" class="st1" d="M141.2,17.2c3.6-0.8,6,0.5,7.9,3.1c2.2,3.2,3.1,7,4.5,10.5c0.4,1.1-0.1,1.2-1.1,1.2
					c-2.5-0.1-4.1-1.4-5.3-3.4C145.2,24.8,143.8,20.8,141.2,17.2z"/>
			</g>
		</g>
		<g id="XMLID_239_">
			<g id="XMLID_61_">
				<path id="XMLID_62_" class="st2" d="M118.5,202.7c-47.3,0-85.7-38.4-85.7-85.7c0-47.3,38.4-85.7,85.7-85.7
					c47.3,0,85.7,38.4,85.7,85.7C204.2,164.2,165.8,202.7,118.5,202.7z M118.5,32.4c-46.6,0-84.6,38-84.6,84.6s38,84.6,84.6,84.6
					c46.6,0,84.6-38,84.6-84.6S165.2,32.4,118.5,32.4z"/>
			</g>
		</g>
		<g id="XMLID_228_">
			<g id="XMLID_106_">
				<g id="XMLID_109_">
					<path id="XMLID_110_" class="st2" d="M92.4,182.9c-28-10.7-46.1-36.6-46.1-66.1c0-28.6,17.3-54.2,44.1-65.3l0.4,0.8
						c-26.5,11-43.5,36.3-43.5,64.5c0,29.1,17.8,54.7,45.5,65.2L92.4,182.9z"/>
				</g>
				<g id="XMLID_107_">
					<path id="XMLID_108_" class="st2" d="M145.1,182.8l-0.3-0.9c27.4-10.6,45.1-36.2,45.1-65.1c0-28.2-17.1-53.5-43.5-64.5l0.4-0.8
						c26.8,11.1,44.1,36.8,44.1,65.3C190.7,146.1,172.8,172,145.1,182.8z"/>
				</g>
			</g>
		</g>
		<g id="XMLID_153_">
			<g id="XMLID_414_">
				<path id="XMLID_435_" class="st2" d="M100.9,50.7l-2.4,0.7l1,3.6l2.8-0.8l0.3,1l-3.9,1.1l-2.8-9.7l3.7-1.1l0.3,1l-2.6,0.7
					l0.9,3.2l2.4-0.7L100.9,50.7z"/>
				<path id="XMLID_433_" class="st2" d="M103.1,53.8c0.4,0.2,1,0.2,1.5,0.1c1-0.2,1.5-1,1.3-2c-0.2-0.9-0.8-1.4-1.7-1.8
					c-0.9-0.4-2.2-1.1-2.4-2.4c-0.3-1.5,0.5-2.8,2.1-3.1c0.6-0.1,1.2,0,1.5,0.1l-0.1,1c-0.3-0.1-0.7-0.2-1.2-0.1
					c-1,0.2-1.3,1-1.1,1.7c0.2,1,0.8,1.3,1.9,1.7c1.4,0.6,2.1,1.4,2.3,2.5c0.3,1.7-0.6,3-2.2,3.3c-0.7,0.1-1.4,0.1-1.8-0.1
					L103.1,53.8z"/>
				<path id="XMLID_431_" class="st2" d="M108.8,44.9l-1.8,0.2l-0.1-1l4.8-0.6l0.1,1l-1.8,0.2l1.1,9l-1.1,0.1L108.8,44.9z"/>
				<path id="XMLID_429_" class="st2" d="M112.6,52.9c0-0.5,0.3-0.9,0.7-0.9c0.5,0,0.8,0.3,0.8,0.8c0,0.5-0.2,0.9-0.7,0.9
					C113,53.7,112.7,53.4,112.6,52.9z"/>
				<path id="XMLID_427_" class="st2" d="M117.4,53.3l0-0.8l0.8-1.1c1.2-1.6,2.6-3.4,2.6-5.2c0-1.1-0.4-1.7-1.4-1.8
					c-0.7,0-1.2,0.4-1.4,0.5l-0.3-0.9c0.4-0.3,1-0.6,1.9-0.6c1.6,0,2.3,1.2,2.3,2.7c0,1.8-1.3,3.6-2.5,5.2l-0.7,0.9l0,0l3.3,0.1l0,1
					L117.4,53.3z"/>
				<path id="XMLID_424_" class="st2" d="M128.7,49.2c-0.4,3.5-1.7,4.9-3.1,4.7c-1.5-0.2-2.2-2.1-1.9-5.2c0.4-3.3,1.5-4.9,3.1-4.7
					C128.4,44.1,129,46.1,128.7,49.2z M124.9,48.8c-0.3,2.3,0,4,0.9,4.1c0.9,0.1,1.5-1.5,1.7-3.8c0.2-2.3,0.1-4-0.9-4.1
					C125.8,44.8,125.2,46.4,124.9,48.8z"/>
				<path id="XMLID_419_" class="st2" d="M132.4,46.1L132.4,46.1l-1.8,0.6l-0.1-0.9l2.2-0.8l0.9,0.2l-1.8,9.6l-1.1-0.2L132.4,46.1z"
					/>
				<path id="XMLID_415_" class="st2" d="M134.7,54.4c0.2,0.1,0.5,0.1,0.7,0.1c0.5,0,1-0.1,1.5-0.4c0.7-0.4,1.3-1.2,1.8-2.4l0,0
					c-0.5,0.4-1.1,0.6-1.7,0.4c-1.2-0.3-1.7-1.7-1.3-3.4c0.5-1.7,1.8-2.9,3.3-2.5c1.6,0.5,1.9,2.4,1.3,4.4c-0.5,1.8-1.4,3.2-2.5,4
					c-0.8,0.6-1.7,0.9-2.6,0.8c-0.3,0-0.6-0.1-0.8-0.1L134.7,54.4z M136.8,49c-0.4,1.4-0.1,2.2,0.7,2.4c0.5,0.1,1-0.1,1.4-0.5
					c0.1-0.1,0.2-0.3,0.3-0.6c0.6-2,0.2-3-0.5-3.2C138.1,47,137.3,47.4,136.8,49z"/>
			</g>
		</g>
		<g id="XMLID_92_">
			<g id="XMLID_582_">
				<path id="XMLID_583_" class="st2" d="M117,197c-4.1-0.1-8.3-0.5-12.3-1.2l0.2-1c4,0.7,8.1,1.1,12.2,1.2L117,197z M120.1,197l0-1
					c4.1-0.1,8.2-0.5,12.2-1.2l0.2,1C128.4,196.5,124.3,196.9,120.1,197z M92.6,192.7c-1-0.3-2-0.7-2.9-1.1l0.4-1
					c1,0.4,1.9,0.7,2.9,1L92.6,192.7z M144.5,192.7l-0.3-1c1-0.3,1.9-0.7,2.9-1l0.4,1C146.4,192,145.5,192.4,144.5,192.7z
					 M78.5,186.3c-3.6-2.1-7-4.4-10.2-7l0.6-0.8c3.2,2.6,6.6,4.9,10.1,6.9L78.5,186.3z M158.6,186.3l-0.5-0.9
					c3.5-2,6.9-4.4,10.1-6.9l0.6,0.8C165.6,181.9,162.1,184.2,158.6,186.3z M65.9,177.3c-3.1-2.7-6-5.7-8.7-8.8l0.8-0.7
					c2.6,3.1,5.5,6.1,8.6,8.7L65.9,177.3z M171.2,177.3l-0.7-0.8c3.1-2.7,6-5.6,8.6-8.7l0.8,0.7
					C177.2,171.6,174.3,174.6,171.2,177.3z M50,158.4c-0.5-0.9-1.1-1.8-1.6-2.7l0.9-0.5c0.5,0.9,1,1.8,1.5,2.6L50,158.4z
					 M187.1,158.3l-0.9-0.5c0.5-0.9,1-1.8,1.5-2.7l0.9,0.5C188.1,156.6,187.6,157.5,187.1,158.3z M43.3,144.4
					c-1.4-3.9-2.5-7.9-3.3-11.9l1-0.2c0.8,4,1.9,8,3.3,11.8L43.3,144.4z M193.8,144.4l-1-0.4c1.4-3.8,2.5-7.8,3.3-11.8l1,0.2
					C196.3,136.4,195.2,140.5,193.8,144.4z M39.4,129.4c-0.6-4.1-1-8.2-1-12.4l1,0c0,4.1,0.3,8.2,1,12.2L39.4,129.4z M197.6,129.3
					l-1-0.2c0.6-4,0.9-8.1,0.9-12.2l0-0.2h1l0,0.2C198.6,121.1,198.3,125.3,197.6,129.3z M40.4,104.8l-1-0.2c0.2-1,0.3-2,0.5-3.1
					l1,0.2C40.8,102.8,40.6,103.8,40.4,104.8z M196.6,104.6c-0.2-1-0.3-2-0.5-3l1-0.2c0.2,1,0.4,2,0.5,3.1L196.6,104.6z M44.2,90
					l-1-0.4c1.4-3.9,3.1-7.7,5.1-11.3l0.9,0.5C47.3,82.4,45.6,86.2,44.2,90z M192.7,89.8c-1.4-3.8-3.1-7.6-5.1-11.1l0.9-0.5
					c2,3.6,3.7,7.4,5.2,11.3L192.7,89.8z M50.8,76.2l-0.9-0.5c2.1-3.5,4.6-6.9,7.2-10.1l0.8,0.7C55.3,69.4,52.9,72.7,50.8,76.2z
					 M186.1,76c-2.1-3.5-4.5-6.8-7.1-9.9l0.8-0.7c2.7,3.2,5.1,6.5,7.2,10.1L186.1,76z M66.5,57.5l-0.7-0.8c0.8-0.7,1.6-1.3,2.4-2
					l0.6,0.8C68,56.2,67.3,56.8,66.5,57.5z M170.4,57.3c-0.8-0.7-1.6-1.3-2.4-2l0.6-0.8c0.8,0.6,1.6,1.3,2.4,2L170.4,57.3z
					 M78.9,48.6l-0.5-0.9c3.6-2.1,7.3-3.9,11.2-5.4l0.4,1C86.2,44.7,82.4,46.5,78.9,48.6z M157.9,48.5c-3.5-2-7.3-3.8-11.1-5.3
					l0.4-1c3.9,1.5,7.6,3.3,11.2,5.3L157.9,48.5z M92.8,42.2l-0.3-1c3.9-1.3,7.9-2.4,12-3.1l0.2,1C100.7,39.9,96.7,40.9,92.8,42.2z
					 M144,42.1c-3.9-1.3-7.8-2.3-11.9-3l0.2-1c4.1,0.7,8.1,1.7,12,3.1L144,42.1z M116.9,38l0-1c1,0,2.1,0,3.1,0l0,1
					C118.9,37.9,117.9,37.9,116.9,38z"/>
			</g>
		</g>
		<g id="XMLID_87_">
			<g id="XMLID_42_">
				<path id="XMLID_43_" class="st2" d="M117.5,175.5c-1-1.4-4.5-5.8-5.1-8c-0.4-1.6,0.5-3,2.1-3c1.7,0,2.7,1.5,3,2.8
					c0.3-1.3,1.3-2.8,3-2.8c1.6,0,2.5,1.5,2.1,3C122.1,169.7,118.5,174.1,117.5,175.5z"/>
			</g>
		</g>
		<g id="XMLID_25_">
			<g id="XMLID_279_">
				<path id="XMLID_420_" class="st2" d="M101.6,178c0.5,0,1,0.1,1.7,0.3c0.9,0.2,1.6,0.7,2,1.3c0.3,0.6,0.4,1.4,0.2,2.2
					c-0.2,0.9-0.6,1.4-1.1,1.8c-0.7,0.6-1.7,0.7-2.6,0.4c-0.2-0.1-0.3-0.1-0.5-0.2l-1.1,4l-1.1-0.3L101.6,178z M101.4,183
					c0.1,0.1,0.2,0.1,0.4,0.2c1.1,0.3,2-0.2,2.4-1.6c0.3-1,0.1-2-1.1-2.3c-0.3-0.1-0.5-0.1-0.6-0.1L101.4,183z"/>
				<path id="XMLID_290_" class="st2" d="M106.6,186.4l-1.2,2.9l-1.1-0.2l4-9.6l1.3,0.2l0.5,10.3l-1.1-0.2l-0.1-3.1L106.6,186.4z
					 M108.8,185.9l-0.1-2.6c0-0.7,0-1.6,0-2.3l-0.1,0c-0.2,0.7-0.5,1.6-0.8,2.2l-1,2.4L108.8,185.9z"/>
				<path id="XMLID_287_" class="st2" d="M112.7,180.4c0.5-0.1,1.1-0.1,1.7-0.1c1,0.1,1.7,0.3,2.2,0.9c0.5,0.5,0.6,1.2,0.6,2
					c-0.1,1.3-0.7,2.1-1.8,2.5l0,0c0.7,0.3,1.1,1,1.2,2.4c0.1,1.4,0.3,2.3,0.4,2.6l-1.2-0.1c-0.1-0.3-0.3-1.3-0.4-2.5
					c-0.1-1.4-0.5-1.9-1.5-2l-0.4,0l-0.3,4.4l-1.2-0.1L112.7,180.4z M113.5,185.1l0.5,0c1.1,0.1,1.9-0.7,2-1.9
					c0.1-1.2-0.4-1.9-1.6-2c-0.2,0-0.4,0-0.6,0L113.5,185.1z"/>
				<path id="XMLID_285_" class="st2" d="M118.7,180.5l1.2,0l0.2,4.8l0,0c0.2-0.4,0.4-0.8,0.6-1.2l1.7-3.7l1.3-0.1l-2.3,4.4l2.8,5.7
					l-1.2,0l-2.3-4.8l-0.5,1l0.2,3.9l-1.2,0L118.7,180.5z"/>
				<path id="XMLID_283_" class="st2" d="M129.4,184.8l-2.5,0.4l0.6,3.8l2.8-0.4l0.1,1l-4,0.6l-1.5-10l3.8-0.6l0.1,1l-2.7,0.4
					l0.5,3.3l2.5-0.4L129.4,184.8z"/>
				<path id="XMLID_280_" class="st2" d="M130.5,179.4c0.4-0.3,1-0.5,1.6-0.6c1-0.3,1.8-0.2,2.4,0.1c0.6,0.4,1,1,1.2,1.7
					c0.3,1.2,0,2.2-0.9,2.9l0,0c0.8,0,1.3,0.6,1.9,1.8c0.6,1.3,1,2.1,1.2,2.3l-1.1,0.3c-0.2-0.3-0.7-1.1-1.2-2.3
					c-0.6-1.3-1.1-1.7-2.1-1.4l-0.4,0.1l1.1,4.3L133,189L130.5,179.4z M132.8,183.6l0.5-0.1c1.1-0.3,1.6-1.2,1.3-2.4
					c-0.3-1.1-0.9-1.7-2.1-1.4c-0.2,0.1-0.4,0.1-0.6,0.2L132.8,183.6z"/>
			</g>
		</g>
		<g id="XMLID_13_">
			<g id="XMLID_70_">
				<g id="XMLID_88_">
					<path id="XMLID_95_" class="st2" d="M146.4,137.3v-8.3h3.1l0,0.5c0.1,1,0.1,1.7,0.1,2.2c0,1.5,0.6,2.7,1.9,3.5
						c2.1,1.3,4.4,1.9,6.9,1.9c2.6,0,4.6-0.7,6.1-2.2c1.5-1.5,2.2-3.5,2.2-6.1c0-2.2-0.5-3.9-1.4-5.2s-2.8-2.7-5.5-4.2l-3.1-1.8
						c-6.6-3.7-10-7.8-10-12.3c0-3.3,1.2-6.1,3.6-8.3c2.4-2.2,5.4-3.3,9-3.3c1.6,0,3.3,0.2,5.1,0.5c1.8,0.3,3.8,0.8,5.9,1.4v7.7
						h-3.3l0-0.5c-0.1-1.1-0.1-1.8-0.1-2.3c0-1.6-0.6-2.8-1.8-3.6c-1.2-0.8-3-1.2-5.5-1.2c-2.1,0-3.8,0.7-5.1,2.1
						c-1.3,1.4-2,3.2-2,5.4c0,1.9,0.4,3.5,1.3,4.7c0.9,1.3,2.5,2.5,4.9,3.9l3.1,1.8c4.3,2.4,7.1,4.5,8.6,6.3
						c1.5,1.8,2.2,4.1,2.2,6.8c0,3.6-1.3,6.6-4,9c-2.7,2.4-6,3.6-10.1,3.6c-2.3,0-4.5-0.2-6.6-0.5
						C150,138.4,148.2,137.9,146.4,137.3z"/>
				</g>
			</g>
		</g>
		<g id="XMLID_4_">
			<g id="XMLID_63_">
				<g id="XMLID_65_">
					<path id="XMLID_66_" class="st2" d="M65.1,138.4v-7.1h3.4l0,0.6l0.1,1.9c0,2.1,1.2,3.1,3.6,3.1c1.5,0,2.7-0.6,3.7-1.7
						c1-1.1,1.4-2.5,1.4-4.3l0-3.7V99.1c-0.1-2.6-0.3-4.1-0.7-4.4c-0.3-0.3-1.7-0.6-4.2-0.7L72,93.9v-1.6h17v1.6L88.4,94
						c-2.4,0.1-3.8,0.4-4.2,0.9c-0.4,0.5-0.6,1.9-0.6,4.2v25c0,5.4-1,9.2-3,11.5c-2,2.3-5.5,3.4-10.4,3.4
						C68.5,139,66.9,138.8,65.1,138.4z"/>
				</g>
			</g>
		</g>
	</g>
</g>
</svg>
