<?xml version="1.0" encoding="utf-8"?>
<!-- Generator: Adobe Illustrator 16.0.0, SVG Export Plug-In . SVG Version: 6.00 Build 0)  -->
<!DOCTYPE svg PUBLIC "-//W3C//DTD SVG 1.1//EN" "http://www.w3.org/Graphics/SVG/1.1/DTD/svg11.dtd">
<svg version="1.1" id="Layer_1" xmlns="http://www.w3.org/2000/svg" xmlns:xlink="http://www.w3.org/1999/xlink" x="0px" y="0px"
	 width="244.732px" height="235.263px" viewBox="0 0 244.732 235.263" enable-background="new 0 0 244.732 235.263"
	 xml:space="preserve">
<g>
	<defs>
		<rect id="SVGID_1_" x="32.61" y="29.886" width="179.512" height="175.491"/>
	</defs>
	<clipPath id="SVGID_2_">
		<use xlink:href="#SVGID_1_"  overflow="visible"/>
	</clipPath>
	<path clip-path="url(#SVGID_2_)" fill="#86D0CC" d="M34.689,89.222c-0.122,0.694-0.246,1.39-0.367,2.083
		c0.033,0.068,0.093,0.146,0.084,0.221c-0.037,2.772,0.703,5.397,1.673,7.963c1.594,4.188,4.079,7.868,6.684,11.466
		c1.872,2.592,3.794,5.15,5.667,7.735c0.172,0.237,0.317,0.683,0.204,0.907c-1.327,2.75-2.713,5.47-4.08,8.206
		c-1.486-1.086-2.02-1.095-3.507-0.047c-0.439,0.306-0.9,0.607-1.33,0.934c-1.039,0.785-1.249,1.904-0.539,3
		c0.445,0.683,0.876,1.383,1.411,1.985c0.627,0.713,0.571,1.325-0.083,2.003c-1.104-0.892-2.168-0.675-3.209,0.156
		c-0.443,0.357-0.938,0.645-1.386,0.993c-1.01,0.771-1.203,1.863-0.51,2.932c0.456,0.708,0.918,1.408,1.447,2.066
		c0.345,0.428,0.322,0.768,0.083,1.23c-1.321,2.572-2.59,5.172-3.915,7.739c-0.595,1.163-0.549,2.21,0.226,3.262
		c0.756,1.023,1.465,2.079,2.206,3.119c1.133,1.608,2.417,1.646,3.671,0.097c4.288-5.261,8.583-10.513,12.838-15.8
		c0.943-1.17,2.002-2.181,3.256-3.012c1.657-1.107,3.273-2.282,4.903-3.432c0.113,0.11,0.184,0.152,0.228,0.22
		c4.333,5.778,8.807,11.459,13.681,16.806c0.159,0.178,0.223,0.547,0.164,0.789c-0.227,1.022-0.512,2.041-0.789,3.063
		c-1.008,3.708-2.042,7.408-2.99,11.129c-0.167,0.666-0.171,1.544,0.14,2.108c0.591,1.062,1.471,1.969,2.227,2.945
		c0.323,0.051,0.643,0.11,0.966,0.17c0.793-0.234,1.304-0.781,1.764-1.443c2.087-2.987,4.206-5.953,6.323-8.927
		c0.871-1.213,1.395-1.366,2.732-0.84c2.342,0.921,4.204-0.428,4.101-2.97c-0.054-1.302,0.22-1.697,1.491-2.129
		c0.282-0.094,0.57-0.17,0.855-0.251c3.332-0.92,6.673-1.807,9.985-2.787c0.681-0.195,1.265-0.734,1.891-1.116
		c0.057-0.317,0.113-0.641,0.17-0.958c-0.409-0.721-0.819-1.442-1.227-2.168c-0.732-1.314-1.882-1.777-3.353-1.875
		c-4.641-0.331-9.271-0.747-13.912-1.166c-0.299-0.026-0.69-0.298-0.836-0.564c-3.287-6.198-6.968-12.156-10.815-18.023
		c-0.143-0.212-0.268-0.441-0.42-0.691c1.96-1.379,3.846-2.745,5.775-4.035c0.684-0.467,1.443-0.866,2.22-1.142
		c6.755-2.38,13.522-4.729,20.284-7.094c1.623-0.568,2.032-1.846,1.062-3.254c-0.75-1.093-1.546-2.153-2.273-3.265
		c-0.742-1.126-1.723-1.527-3.055-1.352c-2.835,0.382-5.683,0.682-8.522,1.044c-0.534,0.068-0.899-0.015-1.201-0.518
		c-0.45-0.74-0.965-1.438-1.495-2.125c-0.699-0.902-1.771-1.087-2.748-0.501c-0.482,0.298-0.921,0.667-1.408,0.961
		c-1.179,0.711-1.833,1.642-1.342,3.053c-0.881,0.371-1.484,0.208-1.925-0.626c-0.313-0.587-0.761-1.114-1.151-1.667
		c-1.024-1.438-2.079-1.635-3.506-0.646c-0.335,0.232-0.665,0.465-0.995,0.7c-1.544,1.086-1.699,1.504-1.225,3.36
		c-2.874,0.335-5.746,0.647-8.611,1.036c-0.706,0.091-1.055-0.122-1.434-0.686c-2.129-3.227-4.278-6.451-6.482-9.633
		c-2.268-3.273-4.785-6.345-7.884-8.89c-1.955-1.612-4.09-2.894-6.424-3.859c-0.693-0.117-1.384-0.242-2.077-0.369
		C36.414,86.884,35.3,87.694,34.689,89.222"/>
	
		<path clip-path="url(#SVGID_2_)" fill="none" stroke="#86D0CC" stroke-width="3.5712" stroke-miterlimit="10" stroke-dasharray="6.7057,6.7057" d="
		M175.173,32.276c-17.743-3.354-31.396,7.728-43.568,20.28"/>
	
		<path clip-path="url(#SVGID_2_)" fill="none" stroke="#86D0CC" stroke-width="3.5712" stroke-miterlimit="10" stroke-dasharray="6.7057,6.7057" d="
		M120.031,50.17c-12.329-12.27-26.293-22.251-44.479-17.126"/>
	
		<path clip-path="url(#SVGID_2_)" fill="none" stroke="#86D0CC" stroke-width="3.5712" stroke-miterlimit="10" stroke-dasharray="6.873,6.873" d="
		M60.396,40.571C45.842,51.521,41.938,69.077,44.271,86.899"/>
	
		<path clip-path="url(#SVGID_2_)" fill="none" stroke="#86D0CC" stroke-width="3.5712" stroke-miterlimit="10" stroke-dasharray="6.886,6.886" d="
		M48.276,103.599c12.512,35.512,48.398,65.385,74.159,93.878"/>
	
		<path clip-path="url(#SVGID_2_)" fill="none" stroke="#86D0CC" stroke-width="3.5712" stroke-miterlimit="10" stroke-dasharray="6.886,6.886" d="
		M133.874,194.936c26.343-28.604,61.854-58.714,72.902-94.606"/>
	
		<path clip-path="url(#SVGID_2_)" fill="none" stroke="#86D0CC" stroke-width="3.5712" stroke-miterlimit="10" stroke-dasharray="6.873,6.873" d="
		M210.077,83.485c1.52-17.724-3.465-34.779-19.312-44.866"/>
	<path clip-path="url(#SVGID_2_)" fill="none" stroke="#86D0CC" stroke-width="3.5712" stroke-miterlimit="10" d="M187.802,36.882
		c-0.986-0.532-2.016-1.039-3.08-1.521c-1.047-0.475-2.08-0.899-3.098-1.276 M207.724,97.018c0.293-1.109,0.559-2.226,0.801-3.347
		c0.244-1.123,0.463-2.249,0.662-3.374 M124.731,200.048c0.766,0.862,1.52,1.727,2.266,2.593c0.743-0.866,1.495-1.731,2.261-2.593
		 M44.789,90.297c0.196,1.125,0.415,2.251,0.659,3.374c0.243,1.122,0.51,2.238,0.804,3.347 M72.367,34.084
		c-1.021,0.377-2.054,0.802-3.101,1.276c-1.064,0.479-2.091,0.989-3.08,1.521 M129.289,54.979c-0.77,0.815-1.534,1.632-2.291,2.446
		c-0.762-0.814-1.528-1.631-2.295-2.446"/>
</g>
</svg>
